<?xml version="1.0" encoding="UTF-8"?>
<svg id="Layer_1" data-name="Layer 1" xmlns="http://www.w3.org/2000/svg" xmlns:xlink="http://www.w3.org/1999/xlink" viewBox="0 0 285.09 103.38">
  <defs>
    <style>
      .cls-1 {
        fill: #c09300;
      }

      .cls-1, .cls-2, .cls-3, .cls-4, .cls-5, .cls-6, .cls-7, .cls-8, .cls-9, .cls-10 {
        stroke-width: 0px;
      }

      .cls-11 {
        stroke: #c09300;
      }

      .cls-11, .cls-12, .cls-13, .cls-14, .cls-15, .cls-16, .cls-17, .cls-18, .cls-19, .cls-20, .cls-21, .cls-22, .cls-23, .cls-24, .cls-25, .cls-26, .cls-27, .cls-28, .cls-29, .cls-30, .cls-31, .cls-32, .cls-33, .cls-34, .cls-35, .cls-36, .cls-37, .cls-38, .cls-39, .cls-40, .cls-41, .cls-42, .cls-43, .cls-44, .cls-45, .cls-46, .cls-47, .cls-48, .cls-49, .cls-50, .cls-51, .cls-52, .cls-53, .cls-54, .cls-55, .cls-56, .cls-57, .cls-58, .cls-59, .cls-60, .cls-61, .cls-62, .cls-63, .cls-64, .cls-65, .cls-66, .cls-67, .cls-68, .cls-69 {
        fill: none;
        stroke-miterlimit: 10;
      }

      .cls-12 {
        stroke: url(#linear-gradient-41);
      }

      .cls-12, .cls-13, .cls-14, .cls-15, .cls-16, .cls-17, .cls-18, .cls-19, .cls-20, .cls-21, .cls-22, .cls-23, .cls-24, .cls-25, .cls-26, .cls-27, .cls-28, .cls-29, .cls-30, .cls-31, .cls-32, .cls-33, .cls-34, .cls-35, .cls-36, .cls-37, .cls-38, .cls-39, .cls-40, .cls-41, .cls-42, .cls-43, .cls-44, .cls-45, .cls-46, .cls-47, .cls-48, .cls-49, .cls-50, .cls-51, .cls-52, .cls-53, .cls-54, .cls-55, .cls-56, .cls-57, .cls-58, .cls-59, .cls-60, .cls-61, .cls-62, .cls-63, .cls-64, .cls-65, .cls-66, .cls-67 {
        stroke-width: .2px;
      }

      .cls-13 {
        stroke: url(#linear-gradient-40);
      }

      .cls-14 {
        stroke: url(#linear-gradient-42);
      }

      .cls-15 {
        stroke: url(#linear-gradient-43);
      }

      .cls-16 {
        stroke: url(#linear-gradient-49);
      }

      .cls-17 {
        stroke: url(#linear-gradient-44);
      }

      .cls-18 {
        stroke: url(#linear-gradient-47);
      }

      .cls-19 {
        stroke: url(#linear-gradient-48);
      }

      .cls-20 {
        stroke: url(#linear-gradient-46);
      }

      .cls-21 {
        stroke: url(#linear-gradient-45);
      }

      .cls-22 {
        stroke: url(#linear-gradient-23);
      }

      .cls-23 {
        stroke: url(#linear-gradient-20);
      }

      .cls-24 {
        stroke: url(#linear-gradient-14);
      }

      .cls-25 {
        stroke: url(#linear-gradient-16);
      }

      .cls-26 {
        stroke: url(#linear-gradient-18);
      }

      .cls-27 {
        stroke: url(#linear-gradient-15);
      }

      .cls-28 {
        stroke: url(#linear-gradient-17);
      }

      .cls-29 {
        stroke: url(#linear-gradient-19);
      }

      .cls-30 {
        stroke: url(#linear-gradient-11);
      }

      .cls-31 {
        stroke: url(#linear-gradient-12);
      }

      .cls-32 {
        stroke: url(#linear-gradient-13);
      }

      .cls-33 {
        stroke: url(#linear-gradient-22);
      }

      .cls-34 {
        stroke: url(#linear-gradient-21);
      }

      .cls-35 {
        stroke: url(#linear-gradient-24);
      }

      .cls-36 {
        stroke: url(#linear-gradient-26);
      }

      .cls-37 {
        stroke: url(#linear-gradient-27);
      }

      .cls-38 {
        stroke: url(#linear-gradient-28);
      }

      .cls-39 {
        stroke: url(#linear-gradient-25);
      }

      .cls-40 {
        stroke: url(#linear-gradient-29);
      }

      .cls-41 {
        stroke: url(#linear-gradient-30);
      }

      .cls-42 {
        stroke: url(#linear-gradient-32);
      }

      .cls-43 {
        stroke: url(#linear-gradient-31);
      }

      .cls-44 {
        stroke: url(#linear-gradient-37);
      }

      .cls-45 {
        stroke: url(#linear-gradient-36);
      }

      .cls-46 {
        stroke: url(#linear-gradient-33);
      }

      .cls-47 {
        stroke: url(#linear-gradient-35);
      }

      .cls-48 {
        stroke: url(#linear-gradient-39);
      }

      .cls-49 {
        stroke: url(#linear-gradient-34);
      }

      .cls-50 {
        stroke: url(#linear-gradient-38);
      }

      .cls-51 {
        stroke: url(#linear-gradient-51);
      }

      .cls-52 {
        stroke: url(#linear-gradient-52);
      }

      .cls-53 {
        stroke: url(#linear-gradient-55);
      }

      .cls-54 {
        stroke: url(#linear-gradient-56);
      }

      .cls-55 {
        stroke: url(#linear-gradient-59);
      }

      .cls-56 {
        stroke: url(#linear-gradient-50);
      }

      .cls-57 {
        stroke: url(#linear-gradient-54);
      }

      .cls-58 {
        stroke: url(#linear-gradient-58);
      }

      .cls-59 {
        stroke: url(#linear-gradient-57);
      }

      .cls-60 {
        stroke: url(#linear-gradient-61);
      }

      .cls-61 {
        stroke: url(#linear-gradient-64);
      }

      .cls-62 {
        stroke: url(#linear-gradient-62);
      }

      .cls-63 {
        stroke: url(#linear-gradient-60);
      }

      .cls-64 {
        stroke: url(#linear-gradient-63);
      }

      .cls-65 {
        stroke: url(#linear-gradient-66);
      }

      .cls-66 {
        stroke: url(#linear-gradient-65);
      }

      .cls-67 {
        stroke: url(#linear-gradient-53);
      }

      .cls-70 {
        clip-path: url(#clippath);
      }

      .cls-2 {
        fill: url(#linear-gradient);
      }

      .cls-68 {
        stroke: url(#linear-gradient-67);
      }

      .cls-69 {
        stroke: url(#linear-gradient-10);
      }

      .cls-3 {
        fill: url(#linear-gradient-4);
      }

      .cls-4 {
        fill: url(#linear-gradient-2);
      }

      .cls-5 {
        fill: url(#linear-gradient-3);
      }

      .cls-6 {
        fill: url(#linear-gradient-8);
      }

      .cls-7 {
        fill: url(#linear-gradient-9);
      }

      .cls-8 {
        fill: url(#linear-gradient-7);
      }

      .cls-9 {
        fill: url(#linear-gradient-5);
      }

      .cls-10 {
        fill: url(#linear-gradient-6);
      }
    </style>
    <linearGradient id="linear-gradient" x1="26.86" y1="13.63" x2="49.13" y2="13.63" gradientUnits="userSpaceOnUse">
      <stop offset="0" stop-color="#f7d73e"/>
      <stop offset=".58" stop-color="#d19848"/>
      <stop offset=".74" stop-color="#ce9445"/>
      <stop offset=".87" stop-color="#c58b3b"/>
      <stop offset=".99" stop-color="#b77a2b"/>
      <stop offset="1" stop-color="#b6792a"/>
    </linearGradient>
    <linearGradient id="linear-gradient-2" x1="32.45" y1="18.04" x2="36.52" y2="18.04" xlink:href="#linear-gradient"/>
    <linearGradient id="linear-gradient-3" x1="35.75" y1="18.03" x2="38.43" y2="18.03" xlink:href="#linear-gradient"/>
    <linearGradient id="linear-gradient-4" x1="39.43" y1="18.19" x2="40.69" y2="18.19" xlink:href="#linear-gradient"/>
    <linearGradient id="linear-gradient-5" x1="41.57" y1="18.58" x2="44.72" y2="18.58" xlink:href="#linear-gradient"/>
    <linearGradient id="linear-gradient-6" x1="28.98" y1="5.3" x2="36.26" y2="5.3" xlink:href="#linear-gradient"/>
    <linearGradient id="linear-gradient-7" x1="28.79" y1="5.28" x2="36.45" y2="5.28" xlink:href="#linear-gradient"/>
    <linearGradient id="linear-gradient-8" x1="28.76" y1="2.51" x2="44.06" y2="2.51" xlink:href="#linear-gradient"/>
    <linearGradient id="linear-gradient-9" x1="28.66" y1="2.51" x2="44.2" y2="2.51" xlink:href="#linear-gradient"/>
    <linearGradient id="linear-gradient-10" x1="0" y1="60.15" x2="76.53" y2="60.15" xlink:href="#linear-gradient"/>
    <clipPath id="clippath">
      <path class="cls-69" d="M73.4,24.54c-.24-5.9-3.47-7.14-6.13-7.14-3.29,0-7.02,1.86-8.97,2.97-3.15,2.02-6.68,3.05-10.52,3.05h-.02c.07.12.13.23.21.34.08.12.15.23.23.33.31.41.62.7.91.83l-.15.63c-.31-.02-2.48-.18-3.87-.75.36.99.23,1.19.17,1.29-.08.11-.2.18-.33.18-1.17-.1-2.16-.48-2.94-.89-.77-.42-1.33-.88-1.63-1.15-.43.41-1.36,1.33-1.89,2.02l-.23.31-2.21-2.32c-.57.5-2.08,1.72-3.91,2.6l-.62.3.69-2.92c-1.02.57-3.04,1.57-4.64,1.57h-.69l.44-.54s.36-.44.87-1.15c.09-.1.17-.21.24-.33.09-.11.17-.22.24-.34-3.8-.02-7.29-1.05-10.43-3.06-1.93-1.1-5.66-2.96-8.95-2.96-2.66,0-5.89,1.24-6.13,7.14L.5,87.14c-.01.14.07.27.2.32.12.07.28.04.37-.06l19.46-17.71-4.01,14.3c-.92-.24-1.69-.49-2.28-.67-.14-.03-.29-.04-.44-.04-.5,0-.98.17-1.38.46h-.01c-1.06,0-1.98.52-2.56,1.46-.58.95-.72,2.15-.36,3.09-.09.23-.15.49-.19.75-1.08.1-1.75.96-2.3,1.67-.36.48-.72.92-1.06.97-.12-.02-.24-.03-.39-.03-.32,0-.59.23-.64.56-.03.32.17.62.47.71.13.02.25.04.36.06.15.09.24.42.35.92.21.84.51,2.08,1.84,2.72.01,1.61.25,3.18,3.13,3.7,5.74,1.64,15.65,2.57,27.18,2.57s21.45-.94,27.26-2.57c2.81-.53,3.04-2.09,3.06-3.7,1.33-.64,1.62-1.88,1.83-2.72.12-.5.21-.83.35-.92.12-.01.24-.03.36-.06.31-.09.52-.39.47-.71-.04-.33-.32-.56-.64-.56-.13,0-.26.01-.39.03-.34-.06-.69-.5-1.06-.97-.54-.71-1.21-1.57-2.3-1.67-.03-.27-.1-.51-.19-.74.36-.94.22-2.15-.36-3.1-.58-.94-1.51-1.46-2.56-1.46-.4-.29-.89-.46-1.39-.46-.14,0-.29.01-.46.06-.57.18-1.33.42-2.25.67l-4.11-14.64-.44-.35-.09-.32.08.08.39.35.07.24,1.55,1.27,18.01,16.77c.06.07.14.09.23.09.04,0,.1-.01.14-.02.12-.07.2-.19.2-.33l-2.63-62.6ZM.84,87.15h0s.62-.56.62-.56l-.62.56ZM21.06,69.01l-.43.35.08-.31.36-.32v.28Z"/>
    </clipPath>
    <linearGradient id="linear-gradient-11" x1="1754.6" y1="-39.24" x2="1766.27" y2="-39.24" gradientTransform="translate(1830.34 -192.36) rotate(170.01) scale(1 -1)" xlink:href="#linear-gradient"/>
    <linearGradient id="linear-gradient-12" x1="1762.65" y1="-41.93" x2="1782.06" y2="-41.93" gradientTransform="translate(1830.34 -192.36) rotate(170.01) scale(1 -1)" xlink:href="#linear-gradient"/>
    <linearGradient id="linear-gradient-13" x1="1847.42" y1="-57.35" x2="1855.32" y2="-57.35" gradientTransform="translate(1830.34 -192.36) rotate(170.01) scale(1 -1)" xlink:href="#linear-gradient"/>
    <linearGradient id="linear-gradient-14" x1="1842.46" y1="-85.68" x2="1850.79" y2="-85.68" gradientTransform="translate(1830.34 -192.36) rotate(170.01) scale(1 -1)" xlink:href="#linear-gradient"/>
    <linearGradient id="linear-gradient-15" x1="1794.06" y1="-80.68" x2="1803.65" y2="-80.68" gradientTransform="translate(1830.34 -192.36) rotate(170.01) scale(1 -1)" xlink:href="#linear-gradient"/>
    <linearGradient id="linear-gradient-16" x1="1773.96" y1="-33.03" x2="1787.26" y2="-33.03" gradientTransform="translate(1830.34 -192.36) rotate(170.01) scale(1 -1)" xlink:href="#linear-gradient"/>
    <linearGradient id="linear-gradient-17" x1="1786.65" y1="-38.8" x2="1816.23" y2="-38.8" gradientTransform="translate(1830.34 -192.36) rotate(170.01) scale(1 -1)" xlink:href="#linear-gradient"/>
    <linearGradient id="linear-gradient-18" x1="1804.21" y1="-38.84" x2="1828.77" y2="-38.84" gradientTransform="translate(1830.34 -192.36) rotate(170.01) scale(1 -1)" xlink:href="#linear-gradient"/>
    <linearGradient id="linear-gradient-19" x1="1828.37" y1="-40.45" x2="1838.17" y2="-40.45" gradientTransform="translate(1830.34 -192.36) rotate(170.01) scale(1 -1)" xlink:href="#linear-gradient"/>
    <linearGradient id="linear-gradient-20" x1="1804.12" y1="-53.49" x2="1828.74" y2="-53.49" gradientTransform="translate(1830.34 -192.36) rotate(170.01) scale(1 -1)" xlink:href="#linear-gradient"/>
    <linearGradient id="linear-gradient-21" x1="1828.11" y1="-54.73" x2="1847.67" y2="-54.73" gradientTransform="translate(1830.34 -192.36) rotate(170.01) scale(1 -1)" xlink:href="#linear-gradient"/>
    <linearGradient id="linear-gradient-22" x1="1828.38" y1="-59.24" x2="1843.39" y2="-59.24" gradientTransform="translate(1830.34 -192.36) rotate(170.01) scale(1 -1)" xlink:href="#linear-gradient"/>
    <linearGradient id="linear-gradient-23" x1="1808.22" y1="-71.79" x2="1823.78" y2="-71.79" gradientTransform="translate(1830.34 -192.36) rotate(170.01) scale(1 -1)" xlink:href="#linear-gradient"/>
    <linearGradient id="linear-gradient-24" x1="1803.99" y1="-65.29" x2="1822.15" y2="-65.29" gradientTransform="translate(1830.34 -192.36) rotate(170.01) scale(1 -1)" xlink:href="#linear-gradient"/>
    <linearGradient id="linear-gradient-25" x1="1794.03" y1="-56.42" x2="1811.68" y2="-56.42" gradientTransform="translate(1830.34 -192.36) rotate(170.01) scale(1 -1)" xlink:href="#linear-gradient"/>
    <linearGradient id="linear-gradient-26" x1="51.83" y1="64.41" x2="68.53" y2="64.41" xlink:href="#linear-gradient"/>
    <linearGradient id="linear-gradient-27" x1="1786.61" y1="-51.44" x2="1804.51" y2="-51.44" gradientTransform="translate(1830.34 -192.36) rotate(170.01) scale(1 -1)" xlink:href="#linear-gradient"/>
    <linearGradient id="linear-gradient-28" x1="1815.63" y1="-28.82" x2="1836.02" y2="-28.82" gradientTransform="translate(1830.34 -192.36) rotate(170.01) scale(1 -1)" xlink:href="#linear-gradient"/>
    <linearGradient id="linear-gradient-29" x1="1837.96" y1="-59.54" x2="1851.01" y2="-59.54" gradientTransform="translate(1830.34 -192.36) rotate(170.01) scale(1 -1)" xlink:href="#linear-gradient"/>
    <linearGradient id="linear-gradient-30" x1="1815.77" y1="-45.23" x2="1828.69" y2="-45.23" gradientTransform="translate(1830.34 -192.36) rotate(170.01) scale(1 -1)" xlink:href="#linear-gradient"/>
    <linearGradient id="linear-gradient-31" x1="1823.18" y1="-71.76" x2="1834.92" y2="-71.76" gradientTransform="translate(1830.34 -192.36) rotate(170.01) scale(1 -1)" xlink:href="#linear-gradient"/>
    <linearGradient id="linear-gradient-32" x1="1821.57" y1="-64.36" x2="1843.8" y2="-64.36" gradientTransform="translate(1830.34 -192.36) rotate(170.01) scale(1 -1)" xlink:href="#linear-gradient"/>
    <linearGradient id="linear-gradient-33" x1="1803.33" y1="-54.36" x2="1811.74" y2="-54.36" gradientTransform="translate(1830.34 -192.36) rotate(170.01) scale(1 -1)" xlink:href="#linear-gradient"/>
    <linearGradient id="linear-gradient-34" x1="1781.91" y1="-33.31" x2="1792.89" y2="-33.31" gradientTransform="translate(1830.34 -192.36) rotate(170.01) scale(1 -1)" xlink:href="#linear-gradient"/>
    <linearGradient id="linear-gradient-35" x1="1786.84" y1="-34.83" x2="1804.58" y2="-34.83" gradientTransform="translate(1830.34 -192.36) rotate(170.01) scale(1 -1)" xlink:href="#linear-gradient"/>
    <linearGradient id="linear-gradient-36" x1="1780.03" y1="-71.35" x2="1792.11" y2="-71.35" gradientTransform="translate(1830.34 -192.36) rotate(170.01) scale(1 -1)" xlink:href="#linear-gradient"/>
    <linearGradient id="linear-gradient-37" x1="1820.44" y1="-80.11" x2="1842.86" y2="-80.11" gradientTransform="translate(1830.34 -192.36) rotate(170.01) scale(1 -1)" xlink:href="#linear-gradient"/>
    <linearGradient id="linear-gradient-38" x1="1833.16" y1="-69.69" x2="1851.11" y2="-69.69" gradientTransform="translate(1830.34 -192.36) rotate(170.01) scale(1 -1)" xlink:href="#linear-gradient"/>
    <linearGradient id="linear-gradient-39" x1="1823.58" y1="-62.62" x2="1847.82" y2="-62.62" gradientTransform="translate(1830.34 -192.36) rotate(170.01) scale(1 -1)" xlink:href="#linear-gradient"/>
    <linearGradient id="linear-gradient-40" x1="1811.33" y1="-72.23" x2="1823.73" y2="-72.23" gradientTransform="translate(1830.34 -192.36) rotate(170.01) scale(1 -1)" xlink:href="#linear-gradient"/>
    <linearGradient id="linear-gradient-41" x1="1821.6" y1="-53.53" x2="1828.84" y2="-53.53" gradientTransform="translate(1830.34 -192.36) rotate(170.01) scale(1 -1)" xlink:href="#linear-gradient"/>
    <linearGradient id="linear-gradient-42" x1="1799.71" y1="-44.63" x2="1822.25" y2="-44.63" gradientTransform="translate(1830.34 -192.36) rotate(170.01) scale(1 -1)" xlink:href="#linear-gradient"/>
    <linearGradient id="linear-gradient-43" x1="1786.71" y1="-28.19" x2="1808.76" y2="-28.19" gradientTransform="translate(1830.34 -192.36) rotate(170.01) scale(1 -1)" xlink:href="#linear-gradient"/>
    <linearGradient id="linear-gradient-44" x1="1792.07" y1="-26.08" x2="1819.31" y2="-26.08" gradientTransform="translate(1830.34 -192.36) rotate(170.01) scale(1 -1)" xlink:href="#linear-gradient"/>
    <linearGradient id="linear-gradient-45" x1="1799.74" y1="-24.95" x2="1819.31" y2="-24.95" gradientTransform="translate(1830.34 -192.36) rotate(170.01) scale(1 -1)" xlink:href="#linear-gradient"/>
    <linearGradient id="linear-gradient-46" x1="1835.75" y1="-33.79" x2="1844.57" y2="-33.79" gradientTransform="translate(1830.34 -192.36) rotate(170.01) scale(1 -1)" xlink:href="#linear-gradient"/>
    <linearGradient id="linear-gradient-47" x1="1819" y1="-16.4" x2="1831.9" y2="-16.4" gradientTransform="translate(1830.34 -192.36) rotate(170.01) scale(1 -1)" xlink:href="#linear-gradient"/>
    <linearGradient id="linear-gradient-48" x1="1818.95" y1="-23.21" x2="1845.91" y2="-23.21" gradientTransform="translate(1830.34 -192.36) rotate(170.01) scale(1 -1)" xlink:href="#linear-gradient"/>
    <linearGradient id="linear-gradient-49" x1="1825.68" y1="-16.37" x2="1844.63" y2="-16.37" gradientTransform="translate(1830.34 -192.36) rotate(170.01) scale(1 -1)" xlink:href="#linear-gradient"/>
    <linearGradient id="linear-gradient-50" x1="1815.72" y1="-30.52" x2="1857.32" y2="-30.52" gradientTransform="translate(1830.34 -192.36) rotate(170.01) scale(1 -1)" xlink:href="#linear-gradient"/>
    <linearGradient id="linear-gradient-51" x1="1837.88" y1="-48.86" x2="1855.4" y2="-48.86" gradientTransform="translate(1830.34 -192.36) rotate(170.01) scale(1 -1)" xlink:href="#linear-gradient"/>
    <linearGradient id="linear-gradient-52" x1="1837.91" y1="-33.79" x2="1855.38" y2="-33.79" gradientTransform="translate(1830.34 -192.36) rotate(170.01) scale(1 -1)" xlink:href="#linear-gradient"/>
    <linearGradient id="linear-gradient-53" x1="1820.2" y1="-79.17" x2="1850.79" y2="-79.17" gradientTransform="translate(1830.34 -192.36) rotate(170.01) scale(1 -1)" xlink:href="#linear-gradient"/>
    <linearGradient id="linear-gradient-54" x1="305.1" y1="1820.04" x2="329.15" y2="1820.04" gradientTransform="translate(1643.09 -860.28) rotate(-128.14) scale(1 -1)" xlink:href="#linear-gradient"/>
    <linearGradient id="linear-gradient-55" x1="299.66" y1="1818.96" x2="327.71" y2="1818.96" gradientTransform="translate(1643.09 -860.28) rotate(-128.14) scale(1 -1)" xlink:href="#linear-gradient"/>
    <linearGradient id="linear-gradient-56" x1="290.58" y1="1821.29" x2="311.05" y2="1821.29" gradientTransform="translate(1643.09 -860.28) rotate(-128.14) scale(1 -1)" xlink:href="#linear-gradient"/>
    <linearGradient id="linear-gradient-57" x1="299.43" y1="1823.73" x2="327.97" y2="1823.73" gradientTransform="translate(1643.09 -860.28) rotate(-128.14) scale(1 -1)" xlink:href="#linear-gradient"/>
    <linearGradient id="linear-gradient-58" x1="304.82" y1="1817.01" x2="329.48" y2="1817.01" gradientTransform="translate(1643.09 -860.28) rotate(-128.14) scale(1 -1)" xlink:href="#linear-gradient"/>
    <linearGradient id="linear-gradient-59" x1="296.98" y1="1835.56" x2="304.55" y2="1835.56" gradientTransform="translate(1643.09 -860.28) rotate(-128.14) scale(1 -1)" xlink:href="#linear-gradient"/>
    <linearGradient id="linear-gradient-60" x1="296.93" y1="1829.8" x2="311.47" y2="1829.8" gradientTransform="translate(1643.09 -860.28) rotate(-128.14) scale(1 -1)" xlink:href="#linear-gradient"/>
    <linearGradient id="linear-gradient-61" x1="873.14" y1="66.92" x2="891.22" y2="66.92" gradientTransform="translate(737.71 -550.96) rotate(142.49) scale(1 -1)" xlink:href="#linear-gradient"/>
    <linearGradient id="linear-gradient-62" x1="861.85" y1="52.87" x2="889.83" y2="52.87" gradientTransform="translate(737.71 -550.96) rotate(142.49) scale(1 -1)" xlink:href="#linear-gradient"/>
    <linearGradient id="linear-gradient-63" x1="861.61" y1="57.69" x2="890.09" y2="57.69" gradientTransform="translate(737.71 -550.96) rotate(142.49) scale(1 -1)" xlink:href="#linear-gradient"/>
    <linearGradient id="linear-gradient-64" x1="878.77" y1="60.25" x2="891.18" y2="60.25" gradientTransform="translate(737.71 -550.96) rotate(142.49) scale(1 -1)" xlink:href="#linear-gradient"/>
    <linearGradient id="linear-gradient-65" x1="861.84" y1="67.42" x2="871.61" y2="67.42" gradientTransform="translate(737.71 -550.96) rotate(142.49) scale(1 -1)" xlink:href="#linear-gradient"/>
    <linearGradient id="linear-gradient-66" x1="861.61" y1="66.51" x2="873.32" y2="66.51" gradientTransform="translate(737.71 -550.96) rotate(142.49) scale(1 -1)" xlink:href="#linear-gradient"/>
    <linearGradient id="linear-gradient-67" x1="0" y1="60.15" x2="76.53" y2="60.15" xlink:href="#linear-gradient"/>
  </defs>
  <g>
    <path class="cls-1" d="M90.44,20.17h-2.65v-2.37h8.35v2.37h-2.65v6.71h-3.05v-6.71Z"/>
    <path class="cls-1" d="M105.84,17.8v9.08h-3.05v-3.35h-2.82v3.35h-3.05v-9.08h3.05v3.22h2.82v-3.22h3.05Z"/>
    <path class="cls-1" d="M114.83,24.57v2.31h-7.52v-9.08h7.35v2.31h-4.35v1.06h3.82v2.2h-3.82v1.19h4.52Z"/>
    <path class="cls-1" d="M104.71,45.07v4.75h-15.46v-18.66h15.11v4.75h-8.95v2.19h7.86v4.53h-7.86v2.45h9.3Z"/>
    <path class="cls-1" d="M119.42,39.98h5.44v7.89c-2.26,1.55-5.37,2.37-8.1,2.37-6,0-10.38-4.03-10.38-9.76s4.38-9.76,10.52-9.76c3.66,0,6.61,1.28,8.5,3.6l-4.01,3.55c-1.17-1.36-2.52-2.05-4.17-2.05-2.76,0-4.52,1.79-4.52,4.67s1.75,4.67,4.44,4.67c.77,0,1.51-.13,2.28-.45v-4.72Z"/>
    <path class="cls-1" d="M138.59,43.04v6.77h-6.27v-6.85l-7.01-11.81h6.61l3.8,6.45,3.82-6.45h6.06l-7.01,11.89Z"/>
    <path class="cls-1" d="M163.82,38.19c0,4.32-3.29,7.04-8.47,7.04h-2.68v4.59h-6.27v-18.66h8.95c5.18,0,8.47,2.72,8.47,7.04ZM157.5,38.19c0-1.36-.82-2.19-2.55-2.19h-2.28v4.37h2.28c1.73,0,2.55-.83,2.55-2.19Z"/>
    <path class="cls-1" d="M169.5,36.03h-5.44v-4.88h17.16v4.88h-5.44v13.78h-6.27v-13.78Z"/>
    <path class="cls-1" d="M182.83,31.15h6.27v18.66h-6.27v-18.66Z"/>
    <path class="cls-1" d="M204.79,46.56h-7.06l-1.25,3.25h-6.37l8.13-18.66h6.16l8.13,18.66h-6.48l-1.25-3.25ZM203.07,42.03l-1.81-4.69-1.81,4.69h3.61Z"/>
    <path class="cls-1" d="M231.85,31.15v18.66h-5.15l-7.06-8.48v8.48h-6.11v-18.66h5.15l7.07,8.48v-8.48h6.11Z"/>
    <path class="cls-1" d="M107.58,67.6c0,3.25-2.74,5.15-7.86,5.15h-10.46v-18.66h9.93c5.13,0,7.52,2.05,7.52,4.88,0,1.73-.88,3.17-2.58,4.03,2.18.8,3.45,2.4,3.45,4.61ZM95.42,58.49v2.77h2.92c1.41,0,2.05-.48,2.05-1.39s-.64-1.39-2.05-1.39h-2.92ZM101.26,66.88c0-.96-.69-1.47-2.07-1.47h-3.77v2.93h3.77c1.38,0,2.07-.51,2.07-1.47Z"/>
    <path class="cls-1" d="M109.78,54.09h6.27v13.78h8.39v4.88h-14.66v-18.66Z"/>
    <path class="cls-1" d="M125.16,63.42c0-5.65,4.44-9.76,10.49-9.76s10.49,4.11,10.49,9.76-4.44,9.76-10.49,9.76-10.49-4.11-10.49-9.76ZM139.82,63.42c0-2.91-1.86-4.67-4.17-4.67s-4.17,1.76-4.17,4.67,1.86,4.67,4.17,4.67,4.17-1.76,4.17-4.67Z"/>
    <path class="cls-1" d="M147.67,63.42c0-5.73,4.38-9.76,10.36-9.76,3.64,0,6.51,1.33,8.34,3.73l-3.96,3.55c-1.09-1.39-2.39-2.19-4.06-2.19-2.6,0-4.36,1.81-4.36,4.67s1.75,4.67,4.36,4.67c1.67,0,2.97-.8,4.06-2.19l3.96,3.55c-1.83,2.4-4.7,3.73-8.34,3.73-5.98,0-10.36-4.03-10.36-9.76Z"/>
    <path class="cls-1" d="M175.74,66.56l-1.41,1.57v4.61h-6.16v-18.66h6.16v6.77l6.11-6.77h6.83l-7.44,8.21,7.81,10.45h-7.25l-4.65-6.18Z"/>
    <path class="cls-1" d="M187.08,63.42c0-5.73,4.38-9.76,10.36-9.76,3.64,0,6.51,1.33,8.34,3.73l-3.96,3.55c-1.09-1.39-2.39-2.19-4.06-2.19-2.6,0-4.36,1.81-4.36,4.67s1.75,4.67,4.36,4.67c1.67,0,2.97-.8,4.06-2.19l3.96,3.55c-1.83,2.4-4.7,3.73-8.34,3.73-5.98,0-10.36-4.03-10.36-9.76Z"/>
    <path class="cls-1" d="M225.91,54.09v18.66h-6.27v-6.88h-5.79v6.88h-6.27v-18.66h6.27v6.61h5.79v-6.61h6.27Z"/>
    <path class="cls-1" d="M241.6,69.5h-7.06l-1.25,3.25h-6.37l8.13-18.66h6.16l8.13,18.66h-6.48l-1.25-3.25ZM239.87,64.96l-1.81-4.69-1.81,4.69h3.61Z"/>
    <path class="cls-1" d="M250.33,54.09h6.27v18.66h-6.27v-18.66Z"/>
    <path class="cls-1" d="M277.95,54.09v18.66h-5.15l-7.06-8.48v8.48h-6.11v-18.66h5.15l7.07,8.48v-8.48h6.11Z"/>
    <path class="cls-1" d="M101.92,92.43h-7.06l-1.25,3.25h-6.37l8.13-18.66h6.16l8.13,18.66h-6.48l-1.25-3.25ZM100.2,87.9l-1.81-4.69-1.81,4.69h3.61Z"/>
    <path class="cls-1" d="M109.49,94.19l2.02-4.59c1.75,1.04,4.09,1.71,6.14,1.71,1.78,0,2.42-.37,2.42-1.01,0-2.35-10.28-.45-10.28-7.41,0-3.47,2.89-6.29,8.66-6.29,2.5,0,5.07.53,7.01,1.63l-1.89,4.56c-1.83-.93-3.56-1.39-5.18-1.39-1.83,0-2.42.53-2.42,1.17,0,2.24,10.28.37,10.28,7.25,0,3.41-2.89,6.29-8.66,6.29-3.11,0-6.24-.77-8.1-1.92Z"/>
    <path class="cls-1" d="M126.93,94.19l2.02-4.59c1.75,1.04,4.09,1.71,6.14,1.71,1.78,0,2.42-.37,2.42-1.01,0-2.35-10.28-.45-10.28-7.41,0-3.47,2.89-6.29,8.66-6.29,2.5,0,5.07.53,7.01,1.63l-1.89,4.56c-1.83-.93-3.56-1.39-5.18-1.39-1.83,0-2.42.53-2.42,1.17,0,2.24,10.28.37,10.28,7.25,0,3.41-2.89,6.29-8.66,6.29-3.11,0-6.24-.77-8.1-1.92Z"/>
    <path class="cls-1" d="M144.81,86.36c0-5.65,4.44-9.76,10.49-9.76s10.49,4.11,10.49,9.76-4.44,9.76-10.49,9.76-10.49-4.11-10.49-9.76ZM159.47,86.36c0-2.91-1.86-4.67-4.17-4.67s-4.17,1.76-4.17,4.67,1.86,4.67,4.17,4.67,4.17-1.76,4.17-4.67Z"/>
    <path class="cls-1" d="M167.32,86.36c0-5.73,4.38-9.76,10.36-9.76,3.64,0,6.51,1.33,8.34,3.73l-3.96,3.55c-1.09-1.39-2.39-2.19-4.06-2.19-2.6,0-4.36,1.81-4.36,4.67s1.75,4.67,4.36,4.67c1.67,0,2.97-.8,4.06-2.19l3.96,3.55c-1.83,2.4-4.7,3.73-8.34,3.73-5.98,0-10.36-4.03-10.36-9.76Z"/>
    <path class="cls-1" d="M187.82,77.02h6.27v18.66h-6.27v-18.66Z"/>
    <path class="cls-1" d="M209.79,92.43h-7.06l-1.25,3.25h-6.37l8.13-18.66h6.16l8.13,18.66h-6.48l-1.25-3.25ZM208.06,87.9l-1.81-4.69-1.81,4.69h3.61Z"/>
    <path class="cls-1" d="M221.63,81.9h-5.44v-4.88h17.16v4.88h-5.44v13.78h-6.27v-13.78Z"/>
    <path class="cls-1" d="M234.96,77.02h6.27v18.66h-6.27v-18.66Z"/>
    <path class="cls-1" d="M243.51,86.36c0-5.65,4.44-9.76,10.49-9.76s10.49,4.11,10.49,9.76-4.44,9.76-10.49,9.76-10.49-4.11-10.49-9.76ZM258.17,86.36c0-2.91-1.86-4.67-4.17-4.67s-4.17,1.76-4.17,4.67,1.86,4.67,4.17,4.67,4.17-1.76,4.17-4.67Z"/>
    <path class="cls-1" d="M285.09,77.02v18.66h-5.15l-7.06-8.48v8.48h-6.11v-18.66h5.15l7.07,8.48v-8.48h6.11Z"/>
  </g>
  <g>
    <path class="cls-1" d="M262.86,22.64h-4v10.42h-1.7v-10.42h-4v-1.5h9.71v1.5Z"/>
    <path class="cls-1" d="M274.71,25.38l.19-1.91h-.07l-.73,1.65-3.31,5.28h-.51l-3.48-5.3-.7-1.62h-.08l.27,1.87v7.7h-1.6v-11.92h1.27l4.02,6.08.63,1.29h.03l.59-1.33,3.82-6.05h1.34v11.92h-1.7v-7.68Z"/>
  </g>
  <g>
    <g>
      <path class="cls-11" d="M73.4,24.54c-.24-5.9-3.47-7.14-6.13-7.14-3.29,0-7.02,1.86-8.97,2.97-3.15,2.02-6.68,3.05-10.52,3.05h-.02c.07.12.13.23.21.34.08.12.15.23.23.33.31.41.62.7.91.83l-.15.63c-.31-.02-2.48-.18-3.87-.75.36.99.23,1.19.17,1.29-.08.11-.2.18-.33.18-1.17-.1-2.16-.48-2.94-.89-.77-.42-1.33-.88-1.63-1.15-.43.41-1.36,1.33-1.89,2.02l-.23.31-2.21-2.32c-.57.5-2.08,1.72-3.91,2.6l-.62.3.69-2.92c-1.02.57-3.04,1.57-4.64,1.57h-.69l.44-.54s.36-.44.87-1.15c.09-.1.17-.21.24-.33.09-.11.17-.22.24-.34-3.8-.02-7.29-1.05-10.43-3.06-1.93-1.1-5.66-2.96-8.95-2.96-2.66,0-5.89,1.24-6.13,7.14L.5,87.14c-.01.14.07.27.2.32.12.07.28.04.37-.06l19.46-17.71-4.01,14.3c-.92-.24-1.69-.49-2.28-.67-.14-.03-.29-.04-.44-.04-.5,0-.98.17-1.38.46h-.01c-1.06,0-1.98.52-2.56,1.46-.58.95-.72,2.15-.36,3.09-.09.23-.15.49-.19.75-1.08.1-1.75.96-2.3,1.67-.36.48-.72.92-1.06.97-.12-.02-.24-.03-.39-.03-.32,0-.59.23-.64.56-.03.32.17.62.47.71.13.02.25.04.36.06.15.09.24.42.35.92.21.84.51,2.08,1.84,2.72.01,1.61.25,3.18,3.13,3.7,5.74,1.64,15.65,2.57,27.18,2.57s21.45-.94,27.26-2.57c2.81-.53,3.04-2.09,3.06-3.7,1.33-.64,1.62-1.88,1.83-2.72.12-.5.21-.83.35-.92.12-.01.24-.03.36-.06.31-.09.52-.39.47-.71-.04-.33-.32-.56-.64-.56-.13,0-.26.01-.39.03-.34-.06-.69-.5-1.06-.97-.54-.71-1.21-1.57-2.3-1.67-.03-.27-.1-.51-.19-.74.36-.94.22-2.15-.36-3.1-.58-.94-1.51-1.46-2.56-1.46-.4-.29-.89-.46-1.39-.46-.14,0-.29.01-.46.06-.57.18-1.33.42-2.25.67l-4.11-14.64-.44-.35-.09-.32.08.08.39.35.07.24,1.55,1.27,18.01,16.77c.06.07.14.09.23.09.04,0,.1-.01.14-.02.12-.07.2-.19.2-.33l-2.63-62.6ZM.84,87.15h0s.62-.56.62-.56l-.62.56ZM21.06,69.01l-.43.35.08-.31.36-.32v.28Z"/>
      <g>
        <path class="cls-2" d="M32.86,23.17l-.33.22s-.03.03-.08.05c-.08.05-.19.12-.36.21.17-.03.34-.05.5-.08.15-.03.32-.05.48-.09l.09-.36.05-.18-.36.22ZM49.13,25.05c-.3-.13-.61-.42-.92-.83-.08-.1-.15-.21-.23-.33-.08-.11-.14-.22-.21-.34-1.45-2.52-2.72-7.61-2.52-12.13.24-5.85-.83-8.21-1.78-9.15C42.36,1.13,38.83.13,36.42,0c-.56-.03-.94.11-1.19.42-.13.14-.19.3-.22.46-2.66-.64-4.74-.65-5.74.03-.92.6-1.23,2.87-.99,3.68.13.43.41.47.53.47.12,0,.24-.04.36-.14.45-.36.91-.55,1.36-.55,1.06,0,2,1.05,2.61,1.93.81,1.19.89,4.85-.53,9.58-.88,2.9-2.69,5.85-3.97,7.66-.08.12-.15.23-.24.34-.08.12-.15.23-.25.33-.5.71-.86,1.14-.87,1.15l-.44.54h.7c1.6,0,3.62-.99,4.64-1.57l-.7,2.92.62-.3c1.83-.88,3.33-2.1,3.91-2.6l2.21,2.32.23-.31c.53-.69,1.47-1.61,1.89-2.02.3.27.86.73,1.63,1.15.78.42,1.78.8,2.94.89.14,0,.26-.06.34-.18.06-.1.19-.3-.17-1.3,1.39.58,3.57.73,3.88.75l.15-.63ZM44.82,24.04s-.08-.06-.11-.09c-.02-.02-.03-.03-.05-.05l-.14.1-.38.25s0,.03.02.06c.2.48.41,1.06.48,1.38-2.11-.3-3.61-1.61-3.96-1.94l-.08-.08-.22-.25-.25.22s-.08.06-.16.14c-.36.34-1.19,1.15-1.8,1.88l-1.73-1.82-.39-.42-.23.22s-.02.03-.05.06c-.01,0-.01,0-.01,0-.31.27-1.63,1.42-3.29,2.32l.52-2.18s.01,0,.01-.01l.08-.36.09-.36.05-.18-.36.22-.33.22s-.03.03-.08.05c-.08.05-.19.12-.36.21-.21.12-.49.27-.83.44-.83.43-1.95.91-2.97,1.09.2-.25.43-.57.72-.96.06-.11.15-.22.24-.34.06-.11.15-.23.23-.35,1.28-1.87,2.94-4.64,3.77-7.46,1.05-3.46,1.38-6.77.96-8.8h0c-.01-.05-.03-.08-.03-.12h0s-.01-.08-.03-.11c0,0,0,0,0,0-.1-.45-.25-.82-.45-1.11-1.37-2-2.87-2.66-4.31-1.91h0c-.05.03-.1.06-.15.09h0s-.1.06-.15.1c-.05.04-.11.07-.16.11-.05-.24-.06-.73.05-1.34.06-.35.17-.66.28-.91h0c.02-.08.05-.14.08-.19.03-.06.07-.12.1-.17,0,0,0,0,0,0,.06-.11.15-.19.22-.25.85-.56,3-.5,5.61.18l.5.14-.1-.52s-.05-.25.08-.41c.12-.14.37-.18.56-.18h.09c2.23.14,5.61,1.06,6.63,2.08.12.12.26.29.41.52.02.05.05.08.09.14h0s.04.1.06.15c0,0,0,0,0,.01.6,1.13,1.19,3.4,1.01,7.84-.19,4.27.91,9.29,2.42,12.13.07.12.12.23.19.34.08.12.15.24.23.35.16.25.33.49.5.69-1.08-.14-2.49-.41-3.11-.86ZM32.86,23.17l-.33.22s-.03.03-.08.05c-.08.05-.19.12-.36.21.17-.03.34-.05.5-.08.15-.03.32-.05.48-.09l.09-.36.05-.18-.36.22ZM32.86,23.17l-.33.22s-.03.03-.08.05c-.08.05-.19.12-.36.21.17-.03.34-.05.5-.08.15-.03.32-.05.48-.09l.09-.36.05-.18-.36.22Z"/>
        <path class="cls-4" d="M32.96,23.9l-.51-.46c2.17-2.42,3.38-11.16,3.39-11.25l.68.09c-.05.37-1.25,9.04-3.56,11.62Z"/>
        <path class="cls-5" d="M36.35,24.07l-.6-.33c1.51-2.79,1.99-11.67,1.99-11.76l.69.04c-.02.37-.49,9.12-2.07,12.05Z"/>
        <path class="cls-3" d="M40.04,24.02c-.61-1.72-.61-11.25-.61-11.66h.69c0,2.73.1,10.1.57,11.43l-.65.23Z"/>
        <path class="cls-9" d="M44.15,24.33c-2.06-3.04-2.56-11.12-2.58-11.46l.68-.04c0,.08.5,8.23,2.46,11.11l-.57.39Z"/>
        <g>
          <path class="cls-10" d="M34,7.92c-.11-.79-.3-1.4-.57-1.81-1.08-1.57-2.65-2.89-4.45-1.45,0,0,.61-1.91,1.93-1.98,1.02-.06,3.32.77,5.36,4.25,0,0-1.5-.34-1.86-.02-.68.6-.4,1-.4,1h0Z"/>
          <path class="cls-8" d="M36.35,6.9c-1.85-3.18-4.03-4.3-5.33-4.3-.05,0-.08,0-.12,0-.97.05-1.57,1.02-1.84,1.6-.11.24-.17.41-.17.44l-.1.3.25-.2c1.42-1.14,2.89-.64,4.31,1.43.22.32.39.81.5,1.44-.03.22.06.35.06.36l.17-.06c-.01-.1-.03-.21-.05-.3.02-.11.08-.23.17-.34.06-.08.15-.18.25-.27.06-.05.2-.11.55-.11.54,0,1.23.15,1.23.15l.21.05-.11-.19ZM34.15,7.04c-.07.07-.13.15-.17.22-.11-.51-.27-.91-.47-1.2-.96-1.4-1.96-2.11-2.96-2.11-.46,0-.91.16-1.36.45.05-.11.11-.24.19-.38.29-.53.8-1.19,1.54-1.23h.1c.27,0,2.7.11,5.05,4.02-.25-.05-.68-.12-1.06-.12-.33,0-.55.05-.67.16-.07.06-.14.12-.19.19Z"/>
        </g>
        <g>
          <path class="cls-6" d="M43.25,2.5c-1.08-1.08-4.55-2.04-6.84-2.17-1.29-.06-1.08.98-1.08.98-2.39-.62-4.79-.85-5.86-.12-.3.19-.53.64-.68,1.12l-.03.1s.19-.29.56-.53c.32-.2.79-.4,1.47-.45,1.57-.11,2.03.12,3.24,1.08,1.21.95,2.16,1.43,2.75,1.32.19-.02.3.32.49.55.15.18.1.32.68.32.36,0,.55-.71.78-.89.3-.23.85-.34,1.21-.43.76-.19,1.12-.17,1.69-.23.28-.03,1.23-.06,1.89.25h0c.21.1.38.23.5.41h.04c-.25-.62-.55-1.02-.81-1.3ZM38.28,3.07c0,.36-.28.64-.64.64s-.63-.29-.63-.64.28-.64.63-.64.64.29.64.64Z"/>
          <path class="cls-7" d="M44.15,3.76c-.22-.53-.48-.96-.83-1.33-1.09-1.1-4.55-2.06-6.9-2.19-.47-.03-.8.09-1,.33-.17.21-.19.46-.19.62-1.42-.36-2.7-.54-3.72-.54-.93,0-1.63.16-2.09.46-.39.25-.61.85-.72,1.17l-.04.1.17.08s.12-.2.39-.41c.3-.23.79-.48,1.56-.54.23-.01.43-.02.61-.02,1.09,0,1.57.3,2.56,1.08,1.25,1,2.22,1.45,2.83,1.34.06,0,.15.14.22.26.05.08.11.18.17.26.03.03.05.06.06.09.11.16.21.26.69.26.28,0,.46-.3.61-.58.08-.14.15-.28.23-.34.25-.19.71-.3,1.05-.38l.12-.03c.55-.14.88-.17,1.25-.19.14-.01.28-.02.44-.04.04,0,.17-.02.39-.02.34,0,1.06.04,1.55.32.14.08.26.18.36.31l.03.05h.23l-.05-.14ZM43.42,3.25c-.47-.19-1.03-.23-1.39-.23-.15,0-.31.01-.42.03-.15.01-.29.03-.43.04-.36.03-.71.05-1.27.19l-.12.03c-.36.08-.85.19-1.13.41-.1.08-.18.23-.27.39-.13.23-.28.49-.45.49-.41,0-.46-.07-.53-.18-.02-.03-.05-.07-.08-.1-.06-.07-.11-.16-.16-.24-.1-.18-.21-.35-.38-.35h-.03c-.56.1-1.49-.35-2.68-1.3-1.01-.8-1.54-1.13-2.68-1.13-.18,0-.39,0-.63.03-.59.05-1.03.2-1.35.38,0,0,0,0,0,0-.17.08-.3.18-.41.27.15-.34.32-.59.51-.71.43-.29,1.1-.43,1.99-.43,1.03,0,2.35.2,3.8.58l.15.03-.03-.15s-.07-.34.14-.6c.15-.19.45-.29.85-.27,2.27.13,5.73,1.09,6.77,2.14.23.25.43.54.61.88-.11-.08-.24-.14-.37-.19Z"/>
        </g>
      </g>
    </g>
    <g>
      <g class="cls-70">
        <g>
          <g>
            <polygon class="cls-30" points="85.35 81.32 95.34 80.27 94.34 67.02 85.35 81.32"/>
            <polyline class="cls-31" points="71.01 91.91 80.71 86.58 78.05 71.41 84.23 55.76"/>
            <polyline class="cls-32" points="-3.71 89.65 -4.84 56.2 .98 71.88 -3.71 89.65"/>
            <polygon class="cls-24" points="1.07 43.82 -2.27 31.3 -4.84 56.2 1.07 43.82"/>
            <polygon class="cls-27" points="48.22 32.82 48.88 44.88 41.55 47.99 48.22 32.82"/>
            <polyline class="cls-25" points="71.01 91.91 79.41 94.49 62.86 74.09 71.01 91.91"/>
            <polygon class="cls-28" points="36.78 93.12 62.86 74.09 45.09 73.74 36.78 93.12"/>
            <polygon class="cls-26" points="21.5 79.17 36.78 93.12 45.09 73.74 21.5 79.17"/>
            <polygon class="cls-29" points="16.38 92.11 21.5 79.17 12.48 82.58 16.38 92.11"/>
            <polygon class="cls-23" points="25.83 64.13 45.09 73.74 21.5 79.17 25.83 64.13"/>
            <polygon class="cls-34" points="4.12 65.17 21.5 79.17 .98 71.88 4.12 65.17"/>
            <polygon class="cls-33" points="10.96 54.86 21.5 79.17 4.12 65.17 10.96 54.86"/>
            <polygon class="cls-22" points="35.72 61.68 35.19 40.36 22.6 56.86 35.72 61.68"/>
            <polygon class="cls-35" points="25.83 64.13 41.25 51.88 35.72 61.68 25.83 64.13"/>
            <polygon class="cls-39" points="52.07 54.73 45.09 73.74 35.72 61.68 52.07 54.73"/>
            <polygon class="cls-36" points="52.07 54.73 62.86 74.09 68.4 62.34 52.07 54.73"/>
            <polygon class="cls-37" points="44.15 62.85 62.86 74.09 45.09 73.74 44.15 62.85"/>
            <polygon class="cls-38" points="36.78 93.12 22.43 102.74 16.38 92.11 36.78 93.12"/>
            <polygon class="cls-40" points="4.12 65.17 -4.84 56.2 12.48 82.58 4.12 65.17"/>
            <polygon class="cls-41" points="25.83 64.13 36.78 93.12 21.5 79.17 25.83 64.13"/>
            <polygon class="cls-43" points="22.6 56.86 13.51 51.13 10.96 54.86 22.6 56.86"/>
            <polygon class="cls-42" points="4.12 65.17 25.83 64.13 22.6 56.86 4.12 65.17"/>
            <polygon class="cls-46" points="44.15 62.85 35.72 61.68 45.09 73.74 44.15 62.85"/>
            <polygon class="cls-49" points="62.86 74.09 71.01 91.91 61.01 96.9 62.86 74.09"/>
            <polygon class="cls-47" points="45.09 73.74 61.01 96.9 62.86 74.09 45.09 73.74"/>
            <polygon class="cls-45" points="59.63 42.98 65.52 50.33 53.69 50.47 59.63 42.98"/>
            <polygon class="cls-44" points="13.51 51.13 22.86 41.64 1.07 43.82 13.51 51.13"/>
            <polygon class="cls-50" points="10.96 54.86 -4.84 56.2 13.49 60.96 10.96 54.86"/>
            <polygon class="cls-48" points="22.6 56.86 .98 71.88 4.12 65.17 22.6 56.86"/>
            <polygon class="cls-13" points="35.72 61.68 22.86 41.64 22.6 56.86 35.72 61.68"/>
            <polygon class="cls-12" points="25.83 64.13 21.5 79.17 27.41 73.09 25.83 64.13"/>
            <polygon class="cls-14" points="51.18 82.61 27.41 73.09 45.09 73.74 51.18 82.61"/>
            <polygon class="cls-15" points="61.01 96.9 47.35 109.67 62.86 74.09 61.01 96.9"/>
            <polygon class="cls-17" points="36.78 93.12 61.01 96.9 34.83 100.55 36.78 93.12"/>
            <polygon class="cls-21" points="47.35 109.67 34.83 100.55 51.18 82.61 47.35 109.67"/>
            <polygon class="cls-20" points="10.06 104.93 16.38 92.11 12.48 82.58 10.06 104.93"/>
            <polygon class="cls-18" points="30.46 114.71 34.83 100.55 22.43 102.74 30.46 114.71"/>
            <polygon class="cls-19" points="10.61 116.17 16.38 92.11 34.83 100.55 10.61 116.17"/>
            <polygon class="cls-16" points="10.06 104.93 22.43 102.74 30.46 114.71 10.06 104.93"/>
            <polygon class="cls-56" points="-1.36 113.65 12.48 82.58 36.78 93.12 -1.36 113.65"/>
            <polygon class="cls-51" points="-3.71 89.65 .98 71.88 12.48 82.58 -3.71 89.65"/>
            <polygon class="cls-52" points="10.06 104.93 -3.71 89.65 12.48 82.58 10.06 104.93"/>
            <polygon class="cls-67" points="1.07 43.82 -4.84 56.2 22.86 41.64 1.07 43.82"/>
            <polyline class="cls-57" points="11.18 25.57 31.42 16.99 5.23 7.47 11.18 25.57"/>
            <polyline class="cls-53" points="21.04 32.17 23.17 8.76 11.86 4.12 21.04 32.17"/>
            <polyline class="cls-54" points="11.18 25.57 21.04 32.17 38.61 29.9"/>
            <polyline class="cls-59" points="11.18 25.57 11.86 4.12 21.04 32.17 11.18 25.57"/>
            <polygon class="cls-58" points="5.23 7.47 23.17 8.76 31.42 16.99 5.23 7.47"/>
            <polyline class="cls-55" points="4.73 38.97 18.33 37.66 21.04 32.17"/>
            <polygon class="cls-63" points="21.04 32.17 11.18 25.57 18.33 37.66 21.04 32.17"/>
            <circle class="cls-1" cx="4.7" cy="38.92" r=".31"/>
            <path class="cls-1" d="M20.32,32.25c.24.4.75.54,1.16.3s.54-.76.3-1.16c-.24-.4-.75-.54-1.16-.3-.4.24-.54.76-.3,1.16Z"/>
            <path class="cls-1" d="M10.64,25.83c.15.25.47.34.72.19.25-.15.34-.47.19-.73-.15-.25-.47-.34-.72-.19-.25.15-.34.47-.19.73Z"/>
            <polyline class="cls-60" points="84.46 32.01 81.29 48.25 66.37 37.79 84.46 32.01"/>
            <polyline class="cls-62" points="91.14 22.19 67.84 19.8 63.1 31.1 91.14 22.19"/>
            <polyline class="cls-64" points="84.46 32.01 63.1 31.1 91.14 22.19 84.46 32.01"/>
            <polygon class="cls-61" points="66.37 37.79 67.84 19.8 81.29 48.25 66.37 37.79"/>
            <polyline class="cls-66" points="98.8 32.61 90.39 36.81 91.14 22.19"/>
            <polygon class="cls-65" points="91.14 22.19 84.46 32.01 90.39 36.81 91.14 22.19"/>
          </g>
          <g>
            <path class="cls-1" d="M12.03,82.66c.04.25.28.42.53.37.25-.04.42-.28.37-.53-.04-.25-.28-.42-.53-.37-.25.04-.42.28-.37.53Z"/>
            <path class="cls-1" d="M71.01,91.91c.03.17.19.28.36.25.17-.03.28-.19.25-.36s-.19-.28-.36-.25-.28.19-.25.36Z"/>
            <path class="cls-1" d="M60.68,97.06c.03.17.19.28.36.25s.28-.19.25-.36c-.03-.17-.19-.28-.36-.25s-.28.19-.25.36Z"/>
            <path class="cls-1" d="M68.1,62.39c.03.17.19.28.36.25.17-.03.28-.19.25-.36s-.19-.28-.36-.25-.28.19-.25.36Z"/>
            <path class="cls-1" d="M98.9,32.91c.15-.08.2-.27.11-.42s-.27-.2-.42-.11-.2.27-.11.42.27.2.42.11Z"/>
            <circle class="cls-1" cx="78.05" cy="71.41" r=".31"/>
            <path class="cls-1" d="M83.92,55.81c.03.17.19.28.36.25s.28-.19.25-.36-.19-.28-.36-.25c-.17.03-.28.19-.25.36Z"/>
            <path class="cls-1" d="M10.39,54.96c.06.32.36.53.68.47s.53-.36.47-.68c-.06-.32-.36-.53-.68-.47-.32.06-.53.36-.47.68Z"/>
            <path class="cls-1" d="M13.21,51.19c.03.17.19.28.36.25s.28-.19.25-.36c-.03-.17-.19-.28-.36-.25s-.28.19-.25.36Z"/>
            <path class="cls-1" d="M27.1,73.14c.03.17.19.28.36.25.17-.03.28-.19.25-.36s-.19-.28-.36-.25-.28.19-.25.36Z"/>
            <path class="cls-1" d="M43.73,62.92c.03.17.19.28.36.25.17-.03.28-.19.25-.36s-.19-.28-.36-.25-.28.19-.25.36Z"/>
            <path class="cls-1" d="M35.13,61.78c.06.33.37.54.69.49.32-.06.54-.37.48-.69-.06-.33-.37-.54-.69-.49-.32.06-.54.37-.48.69Z"/>
            <path class="cls-1" d="M34.6,40.46c.06.33.37.54.69.49.32-.06.54-.37.48-.69-.06-.33-.37-.54-.69-.49-.32.06-.54.37-.48.69Z"/>
            <path class="cls-1" d="M3.65,65.25c.05.29.32.48.61.43.29-.05.48-.32.43-.61-.05-.29-.32-.48-.61-.43-.29.05-.48.32-.43.61Z"/>
            <path class="cls-1" d="M22.03,41.79c.08.46.52.77.98.69s.77-.52.69-.98c-.08-.46-.52-.77-.98-.69-.46.08-.77.52-.69.98Z"/>
            <path class="cls-1" d="M91.21,22.91c.41-.23.55-.75.31-1.16s-.75-.55-1.15-.32c-.41.23-.55.75-.31,1.16s.75.55,1.15.32Z"/>
            <circle class="cls-1" cx="16.38" cy="92.11" r=".84"/>
            <path class="cls-1" d="M51.48,54.83c.06.33.37.54.69.49.32-.06.54-.37.48-.69-.06-.33-.37-.54-.69-.49-.32.06-.54.37-.48.69Z"/>
            <path class="cls-1" d="M44.57,73.83c.05.29.32.48.61.43.29-.05.48-.33.43-.61-.05-.29-.32-.48-.61-.43-.29.05-.48.33-.43.61Z"/>
            <path class="cls-1" d="M84.71,32.55c.25-.15.34-.47.2-.72-.14-.25-.47-.34-.72-.2s-.34.47-.2.72c.14.25.47.34.72.2Z"/>
            <path class="cls-1" d="M63.42,31.46c.25-.15.34-.47.2-.72s-.47-.34-.72-.2c-.25.15-.34.47-.2.72s.47.34.72.2Z"/>
            <path class="cls-1" d="M62.27,74.2c.06.33.37.54.69.49.32-.06.54-.37.48-.69-.06-.33-.37-.54-.69-.49-.32.06-.54.37-.48.69Z"/>
            <path class="cls-1" d="M25.17,64.24c.06.37.42.62.78.55.37-.07.61-.42.55-.79-.06-.37-.42-.62-.78-.55-.37.07-.61.42-.55.79Z"/>
            <path class="cls-1" d="M34,100.7c.08.46.52.77.98.69.46-.08.77-.52.69-.98-.08-.46-.52-.77-.98-.69s-.77.52-.69.98Z"/>
            <path class="cls-1" d="M36.49,93.17c.04.21.24.35.45.31s.35-.24.31-.45c-.04-.21-.24-.35-.45-.31s-.35.24-.31.45Z"/>
            <path class="cls-1" d="M21.12,79.24c.04.21.24.35.45.31.21-.04.35-.24.31-.45-.04-.21-.24-.35-.45-.31-.21.04-.35.24-.31.45Z"/>
            <path class="cls-1" d="M50.73,82.69c.04.25.28.42.53.37s.42-.28.37-.53-.28-.42-.53-.37c-.25.04-.42.28-.37.53Z"/>
            <path class="cls-1" d="M4.46,99.38c.04.25.28.42.53.37s.42-.28.37-.53c-.04-.25-.28-.42-.53-.37-.25.04-.42.28-.37.53Z"/>
            <path class="cls-1" d="M22.12,102.77c.04.25.28.42.53.37s.42-.28.37-.53-.28-.42-.53-.37-.42.28-.37.53Z"/>
          </g>
        </g>
      </g>
      <path class="cls-68" d="M73.4,24.54c-.24-5.9-3.47-7.14-6.13-7.14-3.29,0-7.02,1.86-8.97,2.97-3.15,2.02-6.68,3.05-10.52,3.05h-.02c.07.12.13.23.21.34.08.12.15.23.23.33.31.41.62.7.91.83l-.15.63c-.31-.02-2.48-.18-3.87-.75.36.99.23,1.19.17,1.29-.08.11-.2.18-.33.18-1.17-.1-2.16-.48-2.94-.89-.77-.42-1.33-.88-1.63-1.15-.43.41-1.36,1.33-1.89,2.02l-.23.31-2.21-2.32c-.57.5-2.08,1.72-3.91,2.6l-.62.3.69-2.92c-1.02.57-3.04,1.57-4.64,1.57h-.69l.44-.54s.36-.44.87-1.15c.09-.1.17-.21.24-.33.09-.11.17-.22.24-.34-3.8-.02-7.29-1.05-10.43-3.06-1.93-1.1-5.66-2.96-8.95-2.96-2.66,0-5.89,1.24-6.13,7.14L.5,87.14c-.01.14.07.27.2.32.12.07.28.04.37-.06l19.46-17.71-4.01,14.3c-.92-.24-1.69-.49-2.28-.67-.14-.03-.29-.04-.44-.04-.5,0-.98.17-1.38.46h-.01c-1.06,0-1.98.52-2.56,1.46-.58.95-.72,2.15-.36,3.09-.09.23-.15.49-.19.75-1.08.1-1.75.96-2.3,1.67-.36.48-.72.92-1.06.97-.12-.02-.24-.03-.39-.03-.32,0-.59.23-.64.56-.03.32.17.62.47.71.13.02.25.04.36.06.15.09.24.42.35.92.21.84.51,2.08,1.84,2.72.01,1.61.25,3.18,3.13,3.7,5.74,1.64,15.65,2.57,27.18,2.57s21.45-.94,27.26-2.57c2.81-.53,3.04-2.09,3.06-3.7,1.33-.64,1.62-1.88,1.83-2.72.12-.5.21-.83.35-.92.12-.01.24-.03.36-.06.31-.09.52-.39.47-.71-.04-.33-.32-.56-.64-.56-.13,0-.26.01-.39.03-.34-.06-.69-.5-1.06-.97-.54-.71-1.21-1.57-2.3-1.67-.03-.27-.1-.51-.19-.74.36-.94.22-2.15-.36-3.1-.58-.94-1.51-1.46-2.56-1.46-.4-.29-.89-.46-1.39-.46-.14,0-.29.01-.46.06-.57.18-1.33.42-2.25.67l-4.11-14.64-.44-.35-.09-.32.08.08.39.35.07.24,1.55,1.27,18.01,16.77c.06.07.14.09.23.09.04,0,.1-.01.14-.02.12-.07.2-.19.2-.33l-2.63-62.6ZM.84,87.15h0s.62-.56.62-.56l-.62.56ZM21.06,69.01l-.43.35.08-.31.36-.32v.28Z"/>
    </g>
  </g>
</svg>